<?xml version="1.0" encoding="UTF-8" standalone="no"?>
<!-- Created with Inkscape (http://www.inkscape.org/) -->

<svg
   width="512"
   height="512"
   viewBox="0 0 135.46666 135.46666"
   version="1.1"
   id="svg5"
   xml:space="preserve"
   xmlns="http://www.w3.org/2000/svg"
   xmlns:svg="http://www.w3.org/2000/svg"><defs
     id="defs2" /><g
     id="layer1"><path
       style="fill:#000000;stroke-width:0.12701"
       d="m 24.548507,83.897087 c -0.340808,-0.983841 -0.746238,-3.082928 -0.864335,-4.474983 -0.157092,-1.851779 0.244629,-2.902238 1.537808,-4.021211 0.8797,-0.761194 5.237407,-3.524351 20.221057,-12.821865 l 12.950765,-8.036086 0.600465,-0.721928 c 0.503581,-0.605447 0.644794,-0.906564 0.875218,-1.866262 0.255235,-1.063025 0.251174,-1.437399 -0.05712,-5.269205 -0.504423,-6.269363 -0.708706,-12.312538 -0.517925,-15.32135 0.134625,-2.12319 0.900826,-5.024116 1.845507,-6.987295 1.840696,-3.825233 5.570121,-4.050446 7.760486,-0.46864 1.00977,1.651204 2.229411,4.757481 2.716003,6.917248 0.533905,2.369781 1.028316,9.374623 1.232945,17.468549 0.104016,4.114217 0.258015,4.791329 1.283284,5.642406 0.312331,0.259266 3.78512,2.321524 7.717304,4.582792 12.729992,7.320592 24.583131,14.191305 26.051201,15.100672 1.56758,0.971011 2.28826,1.630779 3.12684,2.86258 0.58642,0.861404 0.80358,1.281787 0.96434,1.866831 0.35742,1.300642 0.36318,2.630573 0.0184,4.23853 -0.49738,2.319502 -1.18483,3.192115 -2.59884,3.298811 -0.87461,0.06601 -1.56461,-0.121154 -8.44168,-2.289628 -13.727105,-4.32842 -17.683008,-5.500205 -19.698219,-5.834837 -2.828638,-0.469706 -6.475056,-0.88411 -6.502351,-0.738965 -0.01493,0.07943 -0.03283,3.398129 -0.03984,7.374959 -0.007,3.976831 -0.01944,9.069704 -0.0277,11.317481 -0.0084,2.289283 0.05287,4.152108 0.139282,4.235177 0.08485,0.08153 1.562753,0.759542 3.284231,1.506632 3.663743,1.59 3.875055,1.6934 4.638624,2.26999 1.306419,0.98648 2.193814,2.5193 2.337657,4.03785 0.08564,0.90412 -0.177628,2.35081 -0.504816,2.77404 -0.271446,0.35114 -1.431645,1.0433 -2.043927,1.21939 -0.750877,0.21594 -7.022427,0.2886 -24.251553,0.28099 -3.676826,-0.002 -4.120838,-0.23225 -4.417502,-2.2945 -0.236354,-1.64304 -0.316117,-2.8575 -0.231173,-3.5198 0.0861,-0.67136 0.586721,-1.60399 1.109516,-2.06702 0.423544,-0.37512 2.782883,-1.59013 5.928802,-3.05319 1.726897,-0.80313 2.331823,-1.129385 2.371149,-1.278861 C 63.09145,99.716024 62.857534,97.10285 62.542604,94.019338 61.857959,87.315921 61.60244,84.789993 61.201749,80.764395 61.035632,79.095492 60.856455,77.660484 60.803578,77.57548 60.6357,77.305598 58.321057,77.183151 56.572635,77.351645 c -2.656354,0.255999 -3.444306,0.475053 -12.662606,3.520365 -2.759207,0.911513 -6.866678,2.247883 -9.127717,2.969698 -2.261041,0.721816 -4.475192,1.429001 -4.920338,1.57152 -2.257216,0.722659 -3.681816,0.703928 -4.489749,-0.05912 C 24.91558,84.92285 24.88533,84.86934 24.548531,83.897063 Z"
       id="path179" /></g></svg>
